0
SECTION
2
HEADER
9
$INSUNITS
70
4
0
ENDSEC
0
SECTION
2
TABLES
0
TABLE
2
LTYPE
0
LTYPE
72
65
70
64
2
CONTINUOUS
3
______
73
0
40
0
0
ENDTAB
0
TABLE
2
LAYER
0
ENDTAB
0
ENDSEC
0
SECTION
2
ENTITIES
0
LINE
8
front_outsideCutPath
10
0
20
66
11
0
21
52.5
0
LINE
8
front_outsideCutPath
10
0
20
52.5
11
3
21
52.5
0
LINE
8
front_outsideCutPath
10
3
20
52.5
11
3
21
40.5
0
LINE
8
front_outsideCutPath
10
3
20
40.5
11
0
21
40.5
0
LINE
8
front_outsideCutPath
10
0
20
40.5
11
0
21
28.5
0
LINE
8
front_outsideCutPath
10
0
20
28.5
11
3
21
28.5
0
LINE
8
front_outsideCutPath
10
3
20
28.5
11
3
21
16.5
0
LINE
8
front_outsideCutPath
10
3
20
16.5
11
0
21
16.5
0
LINE
8
front_outsideCutPath
10
0
20
16.5
11
0
21
4.5
0
LINE
8
front_outsideCutPath
10
0
20
4.5
11
0
21
3
0
LINE
8
front_outsideCutPath
10
0
20
3
11
15
21
3
0
LINE
8
front_outsideCutPath
10
15
20
3
11
15
21
6
0
LINE
8
front_outsideCutPath
10
15
20
6
11
27
21
6
0
LINE
8
front_outsideCutPath
10
27
20
6
11
27
21
3
0
LINE
8
front_outsideCutPath
10
27
20
3
11
39
21
3
0
LINE
8
front_outsideCutPath
10
39
20
3
11
39
21
6
0
LINE
8
front_outsideCutPath
10
39
20
6
11
51
21
6
0
LINE
8
front_outsideCutPath
10
51
20
6
11
51
21
3
0
LINE
8
front_outsideCutPath
10
51
20
3
11
63
21
3
0
LINE
8
front_outsideCutPath
10
63
20
3
11
63
21
6
0
LINE
8
front_outsideCutPath
10
63
20
6
11
75
21
6
0
LINE
8
front_outsideCutPath
10
75
20
6
11
75
21
3
0
LINE
8
front_outsideCutPath
10
75
20
3
11
87
21
3
0
LINE
8
front_outsideCutPath
10
87
20
3
11
87
21
6
0
LINE
8
front_outsideCutPath
10
87
20
6
11
99
21
6
0
LINE
8
front_outsideCutPath
10
99
20
6
11
99
21
3
0
LINE
8
front_outsideCutPath
10
99
20
3
11
111
21
3
0
LINE
8
front_outsideCutPath
10
111
20
3
11
111
21
6
0
LINE
8
front_outsideCutPath
10
111
20
6
11
123
21
6
0
LINE
8
front_outsideCutPath
10
123
20
6
11
123
21
3
0
LINE
8
front_outsideCutPath
10
123
20
3
11
135
21
3
0
LINE
8
front_outsideCutPath
10
135
20
3
11
135
21
6
0
LINE
8
front_outsideCutPath
10
135
20
6
11
147
21
6
0
LINE
8
front_outsideCutPath
10
147
20
6
11
147
21
3
0
LINE
8
front_outsideCutPath
10
147
20
3
11
159
21
3
0
LINE
8
front_outsideCutPath
10
159
20
3
11
159
21
6
0
LINE
8
front_outsideCutPath
10
159
20
6
11
171
21
6
0
LINE
8
front_outsideCutPath
10
171
20
6
11
171
21
3
0
LINE
8
front_outsideCutPath
10
171
20
3
11
183
21
3
0
LINE
8
front_outsideCutPath
10
183
20
3
11
183
21
6
0
LINE
8
front_outsideCutPath
10
183
20
6
11
195
21
6
0
LINE
8
front_outsideCutPath
10
195
20
6
11
195
21
3
0
LINE
8
front_outsideCutPath
10
195
20
3
11
207
21
3
0
LINE
8
front_outsideCutPath
10
207
20
3
11
207
21
6
0
LINE
8
front_outsideCutPath
10
207
20
6
11
219
21
6
0
LINE
8
front_outsideCutPath
10
219
20
6
11
219
21
3
0
LINE
8
front_outsideCutPath
10
219
20
3
11
231
21
3
0
LINE
8
front_outsideCutPath
10
231
20
3
11
231
21
6
0
LINE
8
front_outsideCutPath
10
231
20
6
11
243
21
6
0
LINE
8
front_outsideCutPath
10
243
20
6
11
243
21
3
0
LINE
8
front_outsideCutPath
10
243
20
3
11
255
21
3
0
LINE
8
front_outsideCutPath
10
255
20
3
11
255
21
6
0
LINE
8
front_outsideCutPath
10
255
20
6
11
267
21
6
0
LINE
8
front_outsideCutPath
10
267
20
6
11
267
21
3
0
LINE
8
front_outsideCutPath
10
267
20
3
11
279
21
3
0
LINE
8
front_outsideCutPath
10
279
20
3
11
279
21
6
0
LINE
8
front_outsideCutPath
10
279
20
6
11
291
21
6
0
LINE
8
front_outsideCutPath
10
291
20
6
11
291
21
3
0
LINE
8
front_outsideCutPath
10
291
20
3
11
306
21
3
0
LINE
8
front_outsideCutPath
10
306
20
3
11
306
21
16.5
0
LINE
8
front_outsideCutPath
10
306
20
16.5
11
303
21
16.5
0
LINE
8
front_outsideCutPath
10
303
20
16.5
11
303
21
28.5
0
LINE
8
front_outsideCutPath
10
303
20
28.5
11
306
21
28.5
0
LINE
8
front_outsideCutPath
10
306
20
28.5
11
306
21
40.5
0
LINE
8
front_outsideCutPath
10
306
20
40.5
11
303
21
40.5
0
LINE
8
front_outsideCutPath
10
303
20
40.5
11
303
21
52.5
0
LINE
8
front_outsideCutPath
10
303
20
52.5
11
306
21
52.5
0
LINE
8
front_outsideCutPath
10
306
20
52.5
11
306
21
64.5
0
LINE
8
front_outsideCutPath
10
306
20
64.5
11
306
21
66
0
LINE
8
front_outsideCutPath
10
306
20
66
11
0
21
66
0
LINE
8
left_outsideCutPath
10
312
20
66
11
312
21
52.5
0
LINE
8
left_outsideCutPath
10
312
20
52.5
11
309
21
52.5
0
LINE
8
left_outsideCutPath
10
309
20
52.5
11
309
21
40.5
0
LINE
8
left_outsideCutPath
10
309
20
40.5
11
312
21
40.5
0
LINE
8
left_outsideCutPath
10
312
20
40.5
11
312
21
28.5
0
LINE
8
left_outsideCutPath
10
312
20
28.5
11
309
21
28.5
0
LINE
8
left_outsideCutPath
10
309
20
28.5
11
309
21
16.5
0
LINE
8
left_outsideCutPath
10
309
20
16.5
11
312
21
16.5
0
LINE
8
left_outsideCutPath
10
312
20
16.5
11
312
21
4.5
0
LINE
8
left_outsideCutPath
10
312
20
4.5
11
312
21
3
0
LINE
8
left_outsideCutPath
10
312
20
3
11
324
21
3
0
LINE
8
left_outsideCutPath
10
324
20
3
11
324
21
6
0
LINE
8
left_outsideCutPath
10
324
20
6
11
336
21
6
0
LINE
8
left_outsideCutPath
10
336
20
6
11
336
21
3
0
LINE
8
left_outsideCutPath
10
336
20
3
11
348
21
3
0
LINE
8
left_outsideCutPath
10
348
20
3
11
348
21
6
0
LINE
8
left_outsideCutPath
10
348
20
6
11
360
21
6
0
LINE
8
left_outsideCutPath
10
360
20
6
11
360
21
3
0
LINE
8
left_outsideCutPath
10
360
20
3
11
372
21
3
0
LINE
8
left_outsideCutPath
10
372
20
3
11
372
21
3
0
LINE
8
left_outsideCutPath
10
372
20
3
11
372
21
16.5
0
LINE
8
left_outsideCutPath
10
372
20
16.5
11
375
21
16.5
0
LINE
8
left_outsideCutPath
10
375
20
16.5
11
375
21
28.5
0
LINE
8
left_outsideCutPath
10
375
20
28.5
11
372
21
28.5
0
LINE
8
left_outsideCutPath
10
372
20
28.5
11
372
21
40.5
0
LINE
8
left_outsideCutPath
10
372
20
40.5
11
375
21
40.5
0
LINE
8
left_outsideCutPath
10
375
20
40.5
11
375
21
52.5
0
LINE
8
left_outsideCutPath
10
375
20
52.5
11
372
21
52.5
0
LINE
8
left_outsideCutPath
10
372
20
52.5
11
372
21
64.5
0
LINE
8
left_outsideCutPath
10
372
20
64.5
11
372
21
66
0
LINE
8
left_outsideCutPath
10
372
20
66
11
312
21
66
0
LINE
8
back_outsideCutPath
10
0
20
132
11
0
21
118.5
0
LINE
8
back_outsideCutPath
10
0
20
118.5
11
3
21
118.5
0
LINE
8
back_outsideCutPath
10
3
20
118.5
11
3
21
106.5
0
LINE
8
back_outsideCutPath
10
3
20
106.5
11
0
21
106.5
0
LINE
8
back_outsideCutPath
10
0
20
106.5
11
0
21
94.5
0
LINE
8
back_outsideCutPath
10
0
20
94.5
11
3
21
94.5
0
LINE
8
back_outsideCutPath
10
3
20
94.5
11
3
21
82.5
0
LINE
8
back_outsideCutPath
10
3
20
82.5
11
0
21
82.5
0
LINE
8
back_outsideCutPath
10
0
20
82.5
11
0
21
70.5
0
LINE
8
back_outsideCutPath
10
0
20
70.5
11
0
21
69
0
LINE
8
back_outsideCutPath
10
0
20
69
11
15
21
69
0
LINE
8
back_outsideCutPath
10
15
20
69
11
15
21
72
0
LINE
8
back_outsideCutPath
10
15
20
72
11
27
21
72
0
LINE
8
back_outsideCutPath
10
27
20
72
11
27
21
69
0
LINE
8
back_outsideCutPath
10
27
20
69
11
39
21
69
0
LINE
8
back_outsideCutPath
10
39
20
69
11
39
21
72
0
LINE
8
back_outsideCutPath
10
39
20
72
11
51
21
72
0
LINE
8
back_outsideCutPath
10
51
20
72
11
51
21
69
0
LINE
8
back_outsideCutPath
10
51
20
69
11
63
21
69
0
LINE
8
back_outsideCutPath
10
63
20
69
11
63
21
72
0
LINE
8
back_outsideCutPath
10
63
20
72
11
75
21
72
0
LINE
8
back_outsideCutPath
10
75
20
72
11
75
21
69
0
LINE
8
back_outsideCutPath
10
75
20
69
11
87
21
69
0
LINE
8
back_outsideCutPath
10
87
20
69
11
87
21
72
0
LINE
8
back_outsideCutPath
10
87
20
72
11
99
21
72
0
LINE
8
back_outsideCutPath
10
99
20
72
11
99
21
69
0
LINE
8
back_outsideCutPath
10
99
20
69
11
111
21
69
0
LINE
8
back_outsideCutPath
10
111
20
69
11
111
21
72
0
LINE
8
back_outsideCutPath
10
111
20
72
11
123
21
72
0
LINE
8
back_outsideCutPath
10
123
20
72
11
123
21
69
0
LINE
8
back_outsideCutPath
10
123
20
69
11
135
21
69
0
LINE
8
back_outsideCutPath
10
135
20
69
11
135
21
72
0
LINE
8
back_outsideCutPath
10
135
20
72
11
147
21
72
0
LINE
8
back_outsideCutPath
10
147
20
72
11
147
21
69
0
LINE
8
back_outsideCutPath
10
147
20
69
11
159
21
69
0
LINE
8
back_outsideCutPath
10
159
20
69
11
159
21
72
0
LINE
8
back_outsideCutPath
10
159
20
72
11
171
21
72
0
LINE
8
back_outsideCutPath
10
171
20
72
11
171
21
69
0
LINE
8
back_outsideCutPath
10
171
20
69
11
183
21
69
0
LINE
8
back_outsideCutPath
10
183
20
69
11
183
21
72
0
LINE
8
back_outsideCutPath
10
183
20
72
11
195
21
72
0
LINE
8
back_outsideCutPath
10
195
20
72
11
195
21
69
0
LINE
8
back_outsideCutPath
10
195
20
69
11
207
21
69
0
LINE
8
back_outsideCutPath
10
207
20
69
11
207
21
72
0
LINE
8
back_outsideCutPath
10
207
20
72
11
219
21
72
0
LINE
8
back_outsideCutPath
10
219
20
72
11
219
21
69
0
LINE
8
back_outsideCutPath
10
219
20
69
11
231
21
69
0
LINE
8
back_outsideCutPath
10
231
20
69
11
231
21
72
0
LINE
8
back_outsideCutPath
10
231
20
72
11
243
21
72
0
LINE
8
back_outsideCutPath
10
243
20
72
11
243
21
69
0
LINE
8
back_outsideCutPath
10
243
20
69
11
255
21
69
0
LINE
8
back_outsideCutPath
10
255
20
69
11
255
21
72
0
LINE
8
back_outsideCutPath
10
255
20
72
11
267
21
72
0
LINE
8
back_outsideCutPath
10
267
20
72
11
267
21
69
0
LINE
8
back_outsideCutPath
10
267
20
69
11
279
21
69
0
LINE
8
back_outsideCutPath
10
279
20
69
11
279
21
72
0
LINE
8
back_outsideCutPath
10
279
20
72
11
291
21
72
0
LINE
8
back_outsideCutPath
10
291
20
72
11
291
21
69
0
LINE
8
back_outsideCutPath
10
291
20
69
11
306
21
69
0
LINE
8
back_outsideCutPath
10
306
20
69
11
306
21
82.5
0
LINE
8
back_outsideCutPath
10
306
20
82.5
11
303
21
82.5
0
LINE
8
back_outsideCutPath
10
303
20
82.5
11
303
21
94.5
0
LINE
8
back_outsideCutPath
10
303
20
94.5
11
306
21
94.5
0
LINE
8
back_outsideCutPath
10
306
20
94.5
11
306
21
106.5
0
LINE
8
back_outsideCutPath
10
306
20
106.5
11
303
21
106.5
0
LINE
8
back_outsideCutPath
10
303
20
106.5
11
303
21
118.5
0
LINE
8
back_outsideCutPath
10
303
20
118.5
11
306
21
118.5
0
LINE
8
back_outsideCutPath
10
306
20
118.5
11
306
21
130.5
0
LINE
8
back_outsideCutPath
10
306
20
130.5
11
306
21
132
0
LINE
8
back_outsideCutPath
10
306
20
132
11
0
21
132
0
LINE
8
right_outsideCutPath
10
312
20
132
11
312
21
118.5
0
LINE
8
right_outsideCutPath
10
312
20
118.5
11
309
21
118.5
0
LINE
8
right_outsideCutPath
10
309
20
118.5
11
309
21
106.5
0
LINE
8
right_outsideCutPath
10
309
20
106.5
11
312
21
106.5
0
LINE
8
right_outsideCutPath
10
312
20
106.5
11
312
21
94.5
0
LINE
8
right_outsideCutPath
10
312
20
94.5
11
309
21
94.5
0
LINE
8
right_outsideCutPath
10
309
20
94.5
11
309
21
82.5
0
LINE
8
right_outsideCutPath
10
309
20
82.5
11
312
21
82.5
0
LINE
8
right_outsideCutPath
10
312
20
82.5
11
312
21
70.5
0
LINE
8
right_outsideCutPath
10
312
20
70.5
11
312
21
69
0
LINE
8
right_outsideCutPath
10
312
20
69
11
324
21
69
0
LINE
8
right_outsideCutPath
10
324
20
69
11
324
21
72
0
LINE
8
right_outsideCutPath
10
324
20
72
11
336
21
72
0
LINE
8
right_outsideCutPath
10
336
20
72
11
336
21
69
0
LINE
8
right_outsideCutPath
10
336
20
69
11
348
21
69
0
LINE
8
right_outsideCutPath
10
348
20
69
11
348
21
72
0
LINE
8
right_outsideCutPath
10
348
20
72
11
360
21
72
0
LINE
8
right_outsideCutPath
10
360
20
72
11
360
21
69
0
LINE
8
right_outsideCutPath
10
360
20
69
11
372
21
69
0
LINE
8
right_outsideCutPath
10
372
20
69
11
372
21
69
0
LINE
8
right_outsideCutPath
10
372
20
69
11
372
21
82.5
0
LINE
8
right_outsideCutPath
10
372
20
82.5
11
375
21
82.5
0
LINE
8
right_outsideCutPath
10
375
20
82.5
11
375
21
94.5
0
LINE
8
right_outsideCutPath
10
375
20
94.5
11
372
21
94.5
0
LINE
8
right_outsideCutPath
10
372
20
94.5
11
372
21
106.5
0
LINE
8
right_outsideCutPath
10
372
20
106.5
11
375
21
106.5
0
LINE
8
right_outsideCutPath
10
375
20
106.5
11
375
21
118.5
0
LINE
8
right_outsideCutPath
10
375
20
118.5
11
372
21
118.5
0
LINE
8
right_outsideCutPath
10
372
20
118.5
11
372
21
130.5
0
LINE
8
right_outsideCutPath
10
372
20
130.5
11
372
21
132
0
LINE
8
right_outsideCutPath
10
372
20
132
11
312
21
132
0
LINE
8
bottom_outsideCutPath
10
381
20
66
11
381
21
54
0
LINE
8
bottom_outsideCutPath
10
381
20
54
11
378
21
54
0
LINE
8
bottom_outsideCutPath
10
378
20
54
11
378
21
42
0
LINE
8
bottom_outsideCutPath
10
378
20
42
11
381
21
42
0
LINE
8
bottom_outsideCutPath
10
381
20
42
11
381
21
30
0
LINE
8
bottom_outsideCutPath
10
381
20
30
11
378
21
30
0
LINE
8
bottom_outsideCutPath
10
378
20
30
11
378
21
18
0
LINE
8
bottom_outsideCutPath
10
378
20
18
11
381
21
18
0
LINE
8
bottom_outsideCutPath
10
381
20
18
11
381
21
6
0
LINE
8
bottom_outsideCutPath
10
381
20
6
11
381
21
6
0
LINE
8
bottom_outsideCutPath
10
381
20
6
11
393
21
6
0
LINE
8
bottom_outsideCutPath
10
393
20
6
11
393
21
3
0
LINE
8
bottom_outsideCutPath
10
393
20
3
11
405
21
3
0
LINE
8
bottom_outsideCutPath
10
405
20
3
11
405
21
6
0
LINE
8
bottom_outsideCutPath
10
405
20
6
11
417
21
6
0
LINE
8
bottom_outsideCutPath
10
417
20
6
11
417
21
3
0
LINE
8
bottom_outsideCutPath
10
417
20
3
11
429
21
3
0
LINE
8
bottom_outsideCutPath
10
429
20
3
11
429
21
6
0
LINE
8
bottom_outsideCutPath
10
429
20
6
11
441
21
6
0
LINE
8
bottom_outsideCutPath
10
441
20
6
11
441
21
3
0
LINE
8
bottom_outsideCutPath
10
441
20
3
11
453
21
3
0
LINE
8
bottom_outsideCutPath
10
453
20
3
11
453
21
6
0
LINE
8
bottom_outsideCutPath
10
453
20
6
11
465
21
6
0
LINE
8
bottom_outsideCutPath
10
465
20
6
11
465
21
3
0
LINE
8
bottom_outsideCutPath
10
465
20
3
11
477
21
3
0
LINE
8
bottom_outsideCutPath
10
477
20
3
11
477
21
6
0
LINE
8
bottom_outsideCutPath
10
477
20
6
11
489
21
6
0
LINE
8
bottom_outsideCutPath
10
489
20
6
11
489
21
3
0
LINE
8
bottom_outsideCutPath
10
489
20
3
11
501
21
3
0
LINE
8
bottom_outsideCutPath
10
501
20
3
11
501
21
6
0
LINE
8
bottom_outsideCutPath
10
501
20
6
11
513
21
6
0
LINE
8
bottom_outsideCutPath
10
513
20
6
11
513
21
3
0
LINE
8
bottom_outsideCutPath
10
513
20
3
11
525
21
3
0
LINE
8
bottom_outsideCutPath
10
525
20
3
11
525
21
6
0
LINE
8
bottom_outsideCutPath
10
525
20
6
11
537
21
6
0
LINE
8
bottom_outsideCutPath
10
537
20
6
11
537
21
3
0
LINE
8
bottom_outsideCutPath
10
537
20
3
11
549
21
3
0
LINE
8
bottom_outsideCutPath
10
549
20
3
11
549
21
6
0
LINE
8
bottom_outsideCutPath
10
549
20
6
11
561
21
6
0
LINE
8
bottom_outsideCutPath
10
561
20
6
11
561
21
3
0
LINE
8
bottom_outsideCutPath
10
561
20
3
11
573
21
3
0
LINE
8
bottom_outsideCutPath
10
573
20
3
11
573
21
6
0
LINE
8
bottom_outsideCutPath
10
573
20
6
11
585
21
6
0
LINE
8
bottom_outsideCutPath
10
585
20
6
11
585
21
3
0
LINE
8
bottom_outsideCutPath
10
585
20
3
11
597
21
3
0
LINE
8
bottom_outsideCutPath
10
597
20
3
11
597
21
6
0
LINE
8
bottom_outsideCutPath
10
597
20
6
11
609
21
6
0
LINE
8
bottom_outsideCutPath
10
609
20
6
11
609
21
3
0
LINE
8
bottom_outsideCutPath
10
609
20
3
11
621
21
3
0
LINE
8
bottom_outsideCutPath
10
621
20
3
11
621
21
6
0
LINE
8
bottom_outsideCutPath
10
621
20
6
11
633
21
6
0
LINE
8
bottom_outsideCutPath
10
633
20
6
11
633
21
3
0
LINE
8
bottom_outsideCutPath
10
633
20
3
11
645
21
3
0
LINE
8
bottom_outsideCutPath
10
645
20
3
11
645
21
6
0
LINE
8
bottom_outsideCutPath
10
645
20
6
11
657
21
6
0
LINE
8
bottom_outsideCutPath
10
657
20
6
11
657
21
3
0
LINE
8
bottom_outsideCutPath
10
657
20
3
11
669
21
3
0
LINE
8
bottom_outsideCutPath
10
669
20
3
11
669
21
6
0
LINE
8
bottom_outsideCutPath
10
669
20
6
11
681
21
6
0
LINE
8
bottom_outsideCutPath
10
681
20
6
11
681
21
18
0
LINE
8
bottom_outsideCutPath
10
681
20
18
11
684
21
18
0
LINE
8
bottom_outsideCutPath
10
684
20
18
11
684
21
30
0
LINE
8
bottom_outsideCutPath
10
684
20
30
11
681
21
30
0
LINE
8
bottom_outsideCutPath
10
681
20
30
11
681
21
42
0
LINE
8
bottom_outsideCutPath
10
681
20
42
11
684
21
42
0
LINE
8
bottom_outsideCutPath
10
684
20
42
11
684
21
54
0
LINE
8
bottom_outsideCutPath
10
684
20
54
11
681
21
54
0
LINE
8
bottom_outsideCutPath
10
681
20
54
11
681
21
66
0
LINE
8
bottom_outsideCutPath
10
681
20
66
11
681
21
66
0
LINE
8
bottom_outsideCutPath
10
681
20
66
11
669
21
66
0
LINE
8
bottom_outsideCutPath
10
669
20
66
11
669
21
69
0
LINE
8
bottom_outsideCutPath
10
669
20
69
11
657
21
69
0
LINE
8
bottom_outsideCutPath
10
657
20
69
11
657
21
66
0
LINE
8
bottom_outsideCutPath
10
657
20
66
11
645
21
66
0
LINE
8
bottom_outsideCutPath
10
645
20
66
11
645
21
69
0
LINE
8
bottom_outsideCutPath
10
645
20
69
11
633
21
69
0
LINE
8
bottom_outsideCutPath
10
633
20
69
11
633
21
66
0
LINE
8
bottom_outsideCutPath
10
633
20
66
11
621
21
66
0
LINE
8
bottom_outsideCutPath
10
621
20
66
11
621
21
69
0
LINE
8
bottom_outsideCutPath
10
621
20
69
11
609
21
69
0
LINE
8
bottom_outsideCutPath
10
609
20
69
11
609
21
66
0
LINE
8
bottom_outsideCutPath
10
609
20
66
11
597
21
66
0
LINE
8
bottom_outsideCutPath
10
597
20
66
11
597
21
69
0
LINE
8
bottom_outsideCutPath
10
597
20
69
11
585
21
69
0
LINE
8
bottom_outsideCutPath
10
585
20
69
11
585
21
66
0
LINE
8
bottom_outsideCutPath
10
585
20
66
11
573
21
66
0
LINE
8
bottom_outsideCutPath
10
573
20
66
11
573
21
69
0
LINE
8
bottom_outsideCutPath
10
573
20
69
11
561
21
69
0
LINE
8
bottom_outsideCutPath
10
561
20
69
11
561
21
66
0
LINE
8
bottom_outsideCutPath
10
561
20
66
11
549
21
66
0
LINE
8
bottom_outsideCutPath
10
549
20
66
11
549
21
69
0
LINE
8
bottom_outsideCutPath
10
549
20
69
11
537
21
69
0
LINE
8
bottom_outsideCutPath
10
537
20
69
11
537
21
66
0
LINE
8
bottom_outsideCutPath
10
537
20
66
11
525
21
66
0
LINE
8
bottom_outsideCutPath
10
525
20
66
11
525
21
69
0
LINE
8
bottom_outsideCutPath
10
525
20
69
11
513
21
69
0
LINE
8
bottom_outsideCutPath
10
513
20
69
11
513
21
66
0
LINE
8
bottom_outsideCutPath
10
513
20
66
11
501
21
66
0
LINE
8
bottom_outsideCutPath
10
501
20
66
11
501
21
69
0
LINE
8
bottom_outsideCutPath
10
501
20
69
11
489
21
69
0
LINE
8
bottom_outsideCutPath
10
489
20
69
11
489
21
66
0
LINE
8
bottom_outsideCutPath
10
489
20
66
11
477
21
66
0
LINE
8
bottom_outsideCutPath
10
477
20
66
11
477
21
69
0
LINE
8
bottom_outsideCutPath
10
477
20
69
11
465
21
69
0
LINE
8
bottom_outsideCutPath
10
465
20
69
11
465
21
66
0
LINE
8
bottom_outsideCutPath
10
465
20
66
11
453
21
66
0
LINE
8
bottom_outsideCutPath
10
453
20
66
11
453
21
69
0
LINE
8
bottom_outsideCutPath
10
453
20
69
11
441
21
69
0
LINE
8
bottom_outsideCutPath
10
441
20
69
11
441
21
66
0
LINE
8
bottom_outsideCutPath
10
441
20
66
11
429
21
66
0
LINE
8
bottom_outsideCutPath
10
429
20
66
11
429
21
69
0
LINE
8
bottom_outsideCutPath
10
429
20
69
11
417
21
69
0
LINE
8
bottom_outsideCutPath
10
417
20
69
11
417
21
66
0
LINE
8
bottom_outsideCutPath
10
417
20
66
11
405
21
66
0
LINE
8
bottom_outsideCutPath
10
405
20
66
11
405
21
69
0
LINE
8
bottom_outsideCutPath
10
405
20
69
11
393
21
69
0
LINE
8
bottom_outsideCutPath
10
393
20
69
11
393
21
66
0
LINE
8
bottom_outsideCutPath
10
393
20
66
11
381
21
66
0
ENDSEC
0
EOF